<?xml version="1.0" encoding="UTF-8" standalone="no"?><!-- Generator: Gravit.io --><svg xmlns="http://www.w3.org/2000/svg" xmlns:xlink="http://www.w3.org/1999/xlink" style="isolation:isolate" viewBox="0 0 200 200" width="200pt" height="200pt"><defs><clipPath id="_clipPath_GW9iHTCb2pEnBm1cE2CmA3fglpaANJT4"><rect width="200" height="200"/></clipPath></defs><g clip-path="url(#_clipPath_GW9iHTCb2pEnBm1cE2CmA3fglpaANJT4)"><rect width="200" height="200" style="fill:rgb(252,113,18)"/><mask id="_mask_fb9SLI1tf36eKnsklgYj5nxquC9qmrfz" x="-200%" y="-200%" width="400%" height="400%"><rect x="-200%" y="-200%" width="400%" height="400%" style="fill:white;"/><path d=" M 41.5 69.75 L 174.5 69.75 L 174.5 111.75 L 165.5 120.75 L 32.5 120.75 C 32.673 104.454 35.625 89.313 37.5 74.75 C 38.063 72.188 39.688 69.75 41.5 69.75 Z " fill="black" stroke="none"/></mask><path d=" M 41.5 69.75 L 174.5 69.75 L 174.5 111.75 L 165.5 120.75 L 32.5 120.75 C 32.673 104.454 35.625 89.313 37.5 74.75 C 38.063 72.188 39.688 69.75 41.5 69.75 Z " fill="none" mask="url(#_mask_fb9SLI1tf36eKnsklgYj5nxquC9qmrfz)" vector-effect="non-scaling-stroke" stroke-width="12" stroke="rgb(255,255,255)" stroke-linejoin="round" stroke-linecap="square" stroke-miterlimit="3"/><path d=" M 41.5 69.75 L 174.5 69.75 L 174.5 111.75 L 165.5 120.75 L 32.5 120.75 C 32.673 104.454 35.625 89.313 37.5 74.75 C 38.063 72.188 39.688 69.75 41.5 69.75 Z " fill="none"/><path d=" M 25.5 119.75 L 33.5 119.75 L 33.5 127.75 L 25.5 127.75 L 25.5 119.75 Z " fill="rgb(255,255,255)" vector-effect="non-scaling-stroke" stroke-width="3" stroke="rgb(255,255,255)" stroke-linejoin="miter" stroke-linecap="square" stroke-miterlimit="3"/><circle vector-effect="non-scaling-stroke" cx="74" cy="118.74999999999997" r="10.499999999999996" fill="rgb(252,113,18)" stroke-width="6" stroke="rgb(255,255,255)" stroke-linejoin="miter" stroke-linecap="square" stroke-miterlimit="3"/><circle vector-effect="non-scaling-stroke" cx="143" cy="119.74999999999999" r="10.5" fill="rgb(252,113,18)" stroke-width="6" stroke="rgb(255,255,255)" stroke-linejoin="miter" stroke-linecap="square" stroke-miterlimit="3"/><path d=" M 32.5 105.75 L 40.5 100.75 L 40.5 77.75 L 36.5 73.75 L 32.5 105.75 Z " fill="rgb(255,255,255)"/><rect x="163.5" y="119.75" width="8" height="8" transform="matrix(1,0,0,1,0,0)" fill="rgb(255,255,255)" vector-effect="non-scaling-stroke" stroke-width="3" stroke="rgb(255,255,255)" stroke-linejoin="miter" stroke-linecap="square" stroke-miterlimit="2"/><rect x="46.5" y="76.75" width="16" height="47" transform="matrix(1,0,0,1,0,0)" fill="transparent" vector-effect="non-scaling-stroke" stroke-width="6" stroke="rgb(255,255,255)" stroke-linejoin="round" stroke-linecap="square" stroke-miterlimit="2"/><rect x="49.5" y="79.75" width="10" height="41" transform="matrix(1,0,0,1,0,0)" fill="none"/><rect x="105.5" y="76.75" width="16" height="47" transform="matrix(1,0,0,1,0,0)" fill="transparent" vector-effect="non-scaling-stroke" stroke-width="6" stroke="rgb(255,255,255)" stroke-linejoin="round" stroke-linecap="square" stroke-miterlimit="2"/><rect x="108.5" y="79.75" width="10" height="41" transform="matrix(1,0,0,1,0,0)" fill="none"/><rect x="70.5" y="76.75" width="27" height="23" transform="matrix(1,0,0,1,0,0)" fill="transparent" vector-effect="non-scaling-stroke" stroke-width="6" stroke="rgb(255,255,255)" stroke-linejoin="round" stroke-linecap="square" stroke-miterlimit="2"/><rect x="73.5" y="79.75" width="21" height="17" transform="matrix(1,0,0,1,0,0)" fill="none"/><mask id="_mask_O8Nh54zIwUaBXAT4uQkqWvFTh0QLe6eZ" x="-200%" y="-200%" width="400%" height="400%"><rect x="-200%" y="-200%" width="400%" height="400%" style="fill:white;"/><path d=" M 132.5 79.75 L 162.5 79.75 L 162.5 92.75 L 146.625 92.75 L 140.062 97.75 L 132.5 97.75 L 132.5 79.75 Z " fill="black" stroke="none"/></mask><path d=" M 132.5 79.75 L 162.5 79.75 L 162.5 92.75 L 146.625 92.75 L 140.062 97.75 L 132.5 97.75 L 132.5 79.75 Z " fill="none" mask="url(#_mask_O8Nh54zIwUaBXAT4uQkqWvFTh0QLe6eZ)" vector-effect="non-scaling-stroke" stroke-width="12" stroke="rgb(255,255,255)" stroke-linejoin="round" stroke-linecap="square" stroke-miterlimit="3"/><path d=" M 132.5 79.75 L 162.5 79.75 L 162.5 92.75 L 146.625 92.75 L 140.062 97.75 L 132.5 97.75 L 132.5 79.75 Z " fill="none"/></g></svg>