<?xml version="1.0" encoding="UTF-8" standalone="no"?><!-- Generator: Gravit.io --><svg xmlns="http://www.w3.org/2000/svg" xmlns:xlink="http://www.w3.org/1999/xlink" style="isolation:isolate" viewBox="0 0 200 200" width="200pt" height="200pt"><defs><clipPath id="_clipPath_PrLC2DxoMskdqDwK8qQbfIrOgpEDN6L1"><rect width="200" height="200"/></clipPath></defs><g clip-path="url(#_clipPath_PrLC2DxoMskdqDwK8qQbfIrOgpEDN6L1)"><rect width="200" height="200" style="fill:rgb(121,85,72)"/><mask id="_mask_UKJBx40hXv8qsBC8dxlPWVnz2ELOHc6h" x="-200%" y="-200%" width="400%" height="400%"><rect x="-200%" y="-200%" width="400%" height="400%" style="fill:white;"/><path d=" M 67 89 Q 76.662 83.662 91 76 C 112.633 73.356 134.843 76.51 157.602 85.431 L 170 86 L 178 101 L 174 112 L 128 116 L 30 116 C 23.875 113.625 21.201 101.591 27 97 C 31.5 93.875 51 89.5 67 89 Z " fill="black" stroke="none"/></mask><path d=" M 67 89 Q 76.662 83.662 91 76 C 112.633 73.356 134.843 76.51 157.602 85.431 L 170 86 L 178 101 L 174 112 L 128 116 L 30 116 C 23.875 113.625 21.201 101.591 27 97 C 31.5 93.875 51 89.5 67 89 Z " fill="none" mask="url(#_mask_UKJBx40hXv8qsBC8dxlPWVnz2ELOHc6h)" vector-effect="non-scaling-stroke" stroke-width="12" stroke="rgb(255,255,255)" stroke-linejoin="round" stroke-linecap="square" stroke-miterlimit="3"/><path d=" M 67 89 Q 76.662 83.662 91 76 C 112.633 73.356 134.843 76.51 157.602 85.431 L 170 86 L 178 101 L 174 112 L 128 116 L 30 116 C 23.875 113.625 21.201 101.591 27 97 C 31.5 93.875 51 89.5 67 89 Z " fill="none"/><circle vector-effect="non-scaling-stroke" cx="51.50000000000001" cy="113.99999999999994" r="10.499999999999993" fill="rgb(121,85,72)" stroke-width="6" stroke="rgb(255,255,255)" stroke-linejoin="miter" stroke-linecap="square" stroke-miterlimit="3"/><circle vector-effect="non-scaling-stroke" cx="145.5" cy="114.99999999999996" r="10.5" fill="rgb(121,85,72)" stroke-width="6" stroke="rgb(255,255,255)" stroke-linejoin="miter" stroke-linecap="square" stroke-miterlimit="3"/><line x1="71" y1="110" x2="126" y2="110" vector-effect="non-scaling-stroke" stroke-width="6" stroke="rgb(255,255,255)" stroke-linejoin="miter" stroke-linecap="square" stroke-miterlimit="3"/><mask id="_mask_Ijac0U8jSQQ7zG5VGdPmaaE6YtxS7KsW" x="-200%" y="-200%" width="400%" height="400%"><rect x="-200%" y="-200%" width="400%" height="400%" style="fill:white;"/><path d=" M 108 85.431 L 94.667 86.098 L 84 92.098 L 122.667 90.098 L 126 88.098 C 119.621 86.143 113.315 85.409 108 85.431 Z " fill="black" stroke="none"/></mask><path d=" M 108 85.431 L 94.667 86.098 L 84 92.098 L 122.667 90.098 L 126 88.098 C 119.621 86.143 113.315 85.409 108 85.431 Z " fill="none" mask="url(#_mask_Ijac0U8jSQQ7zG5VGdPmaaE6YtxS7KsW)" vector-effect="non-scaling-stroke" stroke-width="12" stroke="rgb(255,255,255)" stroke-linejoin="round" stroke-linecap="square" stroke-miterlimit="3"/><path d=" M 108 85.431 L 94.667 86.098 L 84 92.098 L 122.667 90.098 L 126 88.098 C 119.621 86.143 113.315 85.409 108 85.431 Z " fill="none"/></g></svg>