<?xml version="1.0" encoding="UTF-8" standalone="no"?><!-- Generator: Gravit.io --><svg xmlns="http://www.w3.org/2000/svg" xmlns:xlink="http://www.w3.org/1999/xlink" style="isolation:isolate" viewBox="0 0 200 200" width="200pt" height="200pt"><defs><clipPath id="_clipPath_sshviL9T1Pylg4zQYPIX5ZCziSUoOcfE"><rect width="200" height="200"/></clipPath></defs><g clip-path="url(#_clipPath_sshviL9T1Pylg4zQYPIX5ZCziSUoOcfE)"><rect width="200" height="200" style="fill:rgb(244,128,38)"/><mask id="_mask_7FOxfQu0GAuHKtOzf38ZHh6kJX5VxTIa" x="-200%" y="-200%" width="400%" height="400%"><rect x="-200%" y="-200%" width="400%" height="400%" style="fill:white;"/><path d=" M 55.5 69.75 L 175.5 69.75 L 175.5 111.75 L 166.5 120.75 Q 33 120.75 31.5 120.75 C 30.08 99.254 43.344 69.75 55.5 69.75 Z " fill="black" stroke="none"/></mask><path d=" M 55.5 69.75 L 175.5 69.75 L 175.5 111.75 L 166.5 120.75 Q 33 120.75 31.5 120.75 C 30.08 99.254 43.344 69.75 55.5 69.75 Z " fill="none" mask="url(#_mask_7FOxfQu0GAuHKtOzf38ZHh6kJX5VxTIa)" vector-effect="non-scaling-stroke" stroke-width="12" stroke="rgb(255,255,255)" stroke-linejoin="round" stroke-linecap="square" stroke-miterlimit="3"/><path d=" M 55.5 69.75 L 175.5 69.75 L 175.5 111.75 L 166.5 120.75 Q 33 120.75 31.5 120.75 C 30.08 99.254 43.344 69.75 55.5 69.75 Z " fill="none"/><path d=" M 24.5 119.75 L 32.5 119.75 L 32.5 127.75 L 24.5 127.75 L 24.5 119.75 Z " fill="rgb(255,255,255)" vector-effect="non-scaling-stroke" stroke-width="3" stroke="rgb(255,255,255)" stroke-linejoin="miter" stroke-linecap="square" stroke-miterlimit="3"/><circle vector-effect="non-scaling-stroke" cx="144" cy="119.74999999999999" r="10.5" fill="rgb(244,128,38)" stroke-width="6" stroke="rgb(255,255,255)" stroke-linejoin="miter" stroke-linecap="square" stroke-miterlimit="3"/><rect x="164.5" y="119.75" width="8" height="8" transform="matrix(1,0,0,1,0,0)" fill="rgb(255,255,255)" vector-effect="non-scaling-stroke" stroke-width="3" stroke="rgb(255,255,255)" stroke-linejoin="miter" stroke-linecap="square" stroke-miterlimit="2"/><rect x="45.5" y="81" width="18" height="42.75" transform="matrix(1,0,0,1,0,0)" fill="transparent" vector-effect="non-scaling-stroke" stroke-width="6" stroke="rgb(255,255,255)" stroke-linejoin="round" stroke-linecap="square" stroke-miterlimit="2"/><rect x="48.5" y="84" width="12" height="36.75" transform="matrix(1,0,0,1,0,0)" fill="none"/><rect x="73.5" y="76.75" width="21" height="23" transform="matrix(1,0,0,1,0,0)" fill="transparent" vector-effect="non-scaling-stroke" stroke-width="6" stroke="rgb(255,255,255)" stroke-linejoin="round" stroke-linecap="square" stroke-miterlimit="2"/><rect x="76.5" y="79.75" width="15" height="17" transform="matrix(1,0,0,1,0,0)" fill="none"/><mask id="_mask_eDGKYNq1mbofhtpQbIihT2a4hNzHDFnR" x="-200%" y="-200%" width="400%" height="400%"><rect x="-200%" y="-200%" width="400%" height="400%" style="fill:white;"/><path d=" M 135.5 79.75 L 165.5 79.75 L 165.5 91.75 L 149.625 91.75 L 143.062 96.75 L 135.5 96.75 L 135.5 79.75 Z " fill="black" stroke="none"/></mask><path d=" M 135.5 79.75 L 165.5 79.75 L 165.5 91.75 L 149.625 91.75 L 143.062 96.75 L 135.5 96.75 L 135.5 79.75 Z " fill="none" mask="url(#_mask_eDGKYNq1mbofhtpQbIihT2a4hNzHDFnR)" vector-effect="non-scaling-stroke" stroke-width="12" stroke="rgb(255,255,255)" stroke-linejoin="round" stroke-linecap="square" stroke-miterlimit="3"/><path d=" M 135.5 79.75 L 165.5 79.75 L 165.5 91.75 L 149.625 91.75 L 143.062 96.75 L 135.5 96.75 L 135.5 79.75 Z " fill="none"/><rect x="104.5" y="81" width="18" height="42.75" transform="matrix(1,0,0,1,0,0)" fill="transparent" vector-effect="non-scaling-stroke" stroke-width="6" stroke="rgb(255,255,255)" stroke-linejoin="round" stroke-linecap="square" stroke-miterlimit="2"/><rect x="107.5" y="84" width="12" height="36.75" transform="matrix(1,0,0,1,0,0)" fill="none"/><circle vector-effect="non-scaling-stroke" cx="75" cy="118.74999999999999" r="10.5" fill="rgb(244,128,38)" stroke-width="6" stroke="rgb(255,255,255)" stroke-linejoin="miter" stroke-linecap="square" stroke-miterlimit="3"/></g></svg>