<?xml version="1.0" encoding="UTF-8" standalone="no"?><!-- Generator: Gravit.io --><svg xmlns="http://www.w3.org/2000/svg" xmlns:xlink="http://www.w3.org/1999/xlink" style="isolation:isolate" viewBox="0 0 200 200" width="200pt" height="200pt"><defs><clipPath id="_clipPath_2AuXkX7Qf7uMHG2uaw2NaAVu7pStjXrH"><rect width="200" height="200"/></clipPath></defs><g clip-path="url(#_clipPath_2AuXkX7Qf7uMHG2uaw2NaAVu7pStjXrH)"><rect width="200" height="200" style="fill:rgb(11,95,96)"/><mask id="_mask_9vPcY931qKv5t1vYAAH3tg78quFgzXTD" x="-200%" y="-200%" width="400%" height="400%"><rect x="-200%" y="-200%" width="400%" height="400%" style="fill:white;"/><path d=" M 57.5 70.625 L 169.5 70.875 L 169.5 121.625 L 29.5 121.625 L 28.203 97.114 Q 36.656 78.406 42.5 74.625 C 46.781 71.469 52.594 70.625 57.5 70.625 Z " fill="black" stroke="none"/></mask><path d=" M 57.5 70.625 L 169.5 70.875 L 169.5 121.625 L 29.5 121.625 L 28.203 97.114 Q 36.656 78.406 42.5 74.625 C 46.781 71.469 52.594 70.625 57.5 70.625 Z " fill="none" mask="url(#_mask_9vPcY931qKv5t1vYAAH3tg78quFgzXTD)" vector-effect="non-scaling-stroke" stroke-width="12" stroke="rgb(255,255,255)" stroke-linejoin="round" stroke-linecap="square" stroke-miterlimit="3"/><path d=" M 57.5 70.625 L 169.5 70.875 L 169.5 121.625 L 29.5 121.625 L 28.203 97.114 Q 36.656 78.406 42.5 74.625 C 46.781 71.469 52.594 70.625 57.5 70.625 Z " fill="none"/><circle vector-effect="non-scaling-stroke" cx="47.00000000000001" cy="123.625" r="5.749999999999972" fill="rgb(11,95,96)" stroke-width="6" stroke="rgb(255,255,255)" stroke-linejoin="miter" stroke-linecap="square" stroke-miterlimit="3"/><circle vector-effect="non-scaling-stroke" cx="62.00000000000003" cy="123.625" r="5.749999999999972" fill="rgb(11,95,96)" stroke-width="6" stroke="rgb(255,255,255)" stroke-linejoin="miter" stroke-linecap="square" stroke-miterlimit="3"/><circle vector-effect="non-scaling-stroke" cx="101.50000000000001" cy="123.625" r="5.749999999999972" fill="rgb(11,95,96)" stroke-width="6" stroke="rgb(255,255,255)" stroke-linejoin="miter" stroke-linecap="square" stroke-miterlimit="3"/><circle vector-effect="non-scaling-stroke" cx="137" cy="123.625" r="5.749999999999972" fill="rgb(11,95,96)" stroke-width="6" stroke="rgb(255,255,255)" stroke-linejoin="miter" stroke-linecap="square" stroke-miterlimit="3"/><circle vector-effect="non-scaling-stroke" cx="152.00000000000006" cy="123.625" r="5.749999999999972" fill="rgb(11,95,96)" stroke-width="6" stroke="rgb(255,255,255)" stroke-linejoin="miter" stroke-linecap="square" stroke-miterlimit="3"/><rect x="168.5" y="120.625" width="8" height="8" transform="matrix(1,0,0,1,0,0)" fill="rgb(255,255,255)" vector-effect="non-scaling-stroke" stroke-width="3" stroke="rgb(255,255,255)" stroke-linejoin="miter" stroke-linecap="square" stroke-miterlimit="2"/><rect x="44" y="77.625" width="18" height="17.25" transform="matrix(1,0,0,1,0,0)" fill="transparent" vector-effect="non-scaling-stroke" stroke-width="6" stroke="rgb(255,255,255)" stroke-linejoin="round" stroke-linecap="square" stroke-miterlimit="2"/><rect x="47" y="80.625" width="12" height="11.25" transform="matrix(1,0,0,1,0,0)" fill="none"/><rect x="137" y="77.625" width="22" height="17.25" transform="matrix(1,0,0,1,0,0)" fill="transparent" vector-effect="non-scaling-stroke" stroke-width="6" stroke="rgb(255,255,255)" stroke-linejoin="round" stroke-linecap="square" stroke-miterlimit="2"/><rect x="140" y="80.625" width="16" height="11.25" transform="matrix(1,0,0,1,0,0)" fill="none"/><rect x="104" y="77.625" width="22" height="17.25" transform="matrix(1,0,0,1,0,0)" fill="transparent" vector-effect="non-scaling-stroke" stroke-width="6" stroke="rgb(255,255,255)" stroke-linejoin="round" stroke-linecap="square" stroke-miterlimit="2"/><rect x="107" y="80.625" width="16" height="11.25" transform="matrix(1,0,0,1,0,0)" fill="none"/><line x1="28.203" y1="107.875" x2="170.5" y2="107.875" vector-effect="non-scaling-stroke" stroke-width="6" stroke="rgb(255,255,255)" stroke-linejoin="miter" stroke-linecap="square" stroke-miterlimit="3"/><rect x="71.5" y="77.625" width="22" height="36.375" transform="matrix(1,0,0,1,0,0)" fill="transparent" vector-effect="non-scaling-stroke" stroke-width="6" stroke="rgb(255,255,255)" stroke-linejoin="round" stroke-linecap="square" stroke-miterlimit="2"/><rect x="74.5" y="80.625" width="16" height="30.375" transform="matrix(1,0,0,1,0,0)" fill="rgb(11,95,96)"/></g></svg>