<?xml version="1.0" encoding="UTF-8" standalone="no"?><!-- Generator: Gravit.io --><svg xmlns="http://www.w3.org/2000/svg" xmlns:xlink="http://www.w3.org/1999/xlink" style="isolation:isolate" viewBox="0 0 200 200" width="200pt" height="200pt"><defs><clipPath id="_clipPath_R8HratvysruME77sBlO3F7PbyAZdpodq"><rect width="200" height="200"/></clipPath></defs><g clip-path="url(#_clipPath_R8HratvysruME77sBlO3F7PbyAZdpodq)"><rect width="200" height="200" style="fill:rgb(255,179,0)"/><mask id="_mask_qVTuh6MNXE23qxreEeWtktu7a0Up8MAH" x="-200%" y="-200%" width="400%" height="400%"><rect x="-200%" y="-200%" width="400%" height="400%" style="fill:white;"/><path d=" M 37.5 70.625 L 162.5 70.625 C 164.813 70.625 167.219 73.75 167.5 75.719 C 168.951 88.162 169.628 103.474 169.5 121.625 L 30.5 121.625 C 30.673 105.329 30.625 90.188 32.5 75.625 C 33.063 73.063 35.688 70.625 37.5 70.625 Z " fill="black" stroke="none"/></mask><path d=" M 37.5 70.625 L 162.5 70.625 C 164.813 70.625 167.219 73.75 167.5 75.719 C 168.951 88.162 169.628 103.474 169.5 121.625 L 30.5 121.625 C 30.673 105.329 30.625 90.188 32.5 75.625 C 33.063 73.063 35.688 70.625 37.5 70.625 Z " fill="none" mask="url(#_mask_qVTuh6MNXE23qxreEeWtktu7a0Up8MAH)" vector-effect="non-scaling-stroke" stroke-width="12" stroke="rgb(0,0,0)" stroke-linejoin="round" stroke-linecap="square" stroke-miterlimit="3"/><path d=" M 37.5 70.625 L 162.5 70.625 C 164.813 70.625 167.219 73.75 167.5 75.719 C 168.951 88.162 169.628 103.474 169.5 121.625 L 30.5 121.625 C 30.673 105.329 30.625 90.188 32.5 75.625 C 33.063 73.063 35.688 70.625 37.5 70.625 Z " fill="none"/><path d=" M 23.5 120.625 L 31.5 120.625 L 31.5 128.625 L 23.5 128.625 L 23.5 120.625 Z " fill="rgb(0,0,0)" vector-effect="non-scaling-stroke" stroke-width="3" stroke="rgb(0,0,0)" stroke-linejoin="miter" stroke-linecap="square" stroke-miterlimit="3"/><circle vector-effect="non-scaling-stroke" cx="47.00000000000001" cy="123.625" r="5.749999999999972" fill="rgb(255,179,0)" stroke-width="6" stroke="rgb(0,0,0)" stroke-linejoin="miter" stroke-linecap="square" stroke-miterlimit="3"/><circle vector-effect="non-scaling-stroke" cx="62.00000000000003" cy="123.625" r="5.749999999999972" fill="rgb(255,179,0)" stroke-width="6" stroke="rgb(0,0,0)" stroke-linejoin="miter" stroke-linecap="square" stroke-miterlimit="3"/><circle vector-effect="non-scaling-stroke" cx="137" cy="123.625" r="5.749999999999972" fill="rgb(255,179,0)" stroke-width="6" stroke="rgb(0,0,0)" stroke-linejoin="miter" stroke-linecap="square" stroke-miterlimit="3"/><circle vector-effect="non-scaling-stroke" cx="152.00000000000006" cy="123.625" r="5.749999999999972" fill="rgb(255,179,0)" stroke-width="6" stroke="rgb(0,0,0)" stroke-linejoin="miter" stroke-linecap="square" stroke-miterlimit="3"/><path d=" M 29.5 104.625 L 35.5 101.625 L 35.5 78.625 L 31.5 74.625 L 29.5 104.625 Z " fill="rgb(0,0,0)"/><rect x="168.5" y="120.625" width="8" height="8" transform="matrix(1,0,0,1,0,0)" fill="rgb(0,0,0)" vector-effect="non-scaling-stroke" stroke-width="3" stroke="rgb(0,0,0)" stroke-linejoin="miter" stroke-linecap="square" stroke-miterlimit="2"/><rect x="72.5" y="79.649" width="22" height="36.351" transform="matrix(1,0,0,1,0,0)" fill="transparent" vector-effect="non-scaling-stroke" stroke-width="6" stroke="rgb(0,0,0)" stroke-linejoin="round" stroke-linecap="square" stroke-miterlimit="2"/><rect x="75.5" y="82.649" width="16" height="30.351" transform="matrix(1,0,0,1,0,0)" fill="none"/><rect x="42" y="79.649" width="22" height="18.951999999999998" transform="matrix(1,0,0,1,0,0)" fill="transparent" vector-effect="non-scaling-stroke" stroke-width="6" stroke="rgb(0,0,0)" stroke-linejoin="round" stroke-linecap="square" stroke-miterlimit="2"/><rect x="45" y="82.649" width="16" height="12.952" transform="matrix(1,0,0,1,0,0)" fill="none"/><rect x="133.5" y="79.649" width="22" height="18.951999999999998" transform="matrix(1,0,0,1,0,0)" fill="transparent" vector-effect="non-scaling-stroke" stroke-width="6" stroke="rgb(0,0,0)" stroke-linejoin="round" stroke-linecap="square" stroke-miterlimit="2"/><rect x="136.5" y="82.649" width="16" height="12.952" transform="matrix(1,0,0,1,0,0)" fill="none"/><rect x="102.5" y="79.649" width="22" height="18.951999999999998" transform="matrix(1,0,0,1,0,0)" fill="transparent" vector-effect="non-scaling-stroke" stroke-width="6" stroke="rgb(0,0,0)" stroke-linejoin="round" stroke-linecap="square" stroke-miterlimit="2"/><rect x="105.5" y="82.649" width="16" height="12.952" transform="matrix(1,0,0,1,0,0)" fill="none"/><path d=" M 170.5 104.625 L 164.5 101.625 L 164.5 78.625 L 168.5 74.625 L 170.5 104.625 Z " fill="rgb(0,0,0)"/></g></svg>