<?xml version="1.0" encoding="UTF-8" standalone="no"?><!-- Generator: Gravit.io --><svg xmlns="http://www.w3.org/2000/svg" xmlns:xlink="http://www.w3.org/1999/xlink" style="isolation:isolate" viewBox="0 0 200 200" width="200pt" height="200pt"><defs><clipPath id="_clipPath_dbJzV2F5b5yr7YoR2lUXj8URELM2L76k"><rect width="200" height="200"/></clipPath></defs><g clip-path="url(#_clipPath_dbJzV2F5b5yr7YoR2lUXj8URELM2L76k)"><rect width="200" height="200" style="fill:rgb(254,195,58)"/><mask id="_mask_4vGi5ZzGmMzUflD9igKtBbBI4768VMFc" x="-200%" y="-200%" width="400%" height="400%"><rect x="-200%" y="-200%" width="400%" height="400%" style="fill:white;"/><path d=" M 60 89 C 69.662 83.662 80.015 79.015 91 75 C 100.247 73.874 108.715 73.551 116.375 74 C 126.898 75.583 142.783 78.927 164 84 C 166.772 88.531 168.448 96.207 171 107 L 170 116 L 30 116 C 24.858 109.248 25.201 103.591 31 99 C 35.5 95.875 44.322 90.336 60 89 Z " fill="black" stroke="none"/></mask><path d=" M 60 89 C 69.662 83.662 80.015 79.015 91 75 C 100.247 73.874 108.715 73.551 116.375 74 C 126.898 75.583 142.783 78.927 164 84 C 166.772 88.531 168.448 96.207 171 107 L 170 116 L 30 116 C 24.858 109.248 25.201 103.591 31 99 C 35.5 95.875 44.322 90.336 60 89 Z " fill="none" mask="url(#_mask_4vGi5ZzGmMzUflD9igKtBbBI4768VMFc)" vector-effect="non-scaling-stroke" stroke-width="12" stroke="rgb(0,0,0)" stroke-linejoin="round" stroke-linecap="square" stroke-miterlimit="3"/><path d=" M 60 89 C 69.662 83.662 80.015 79.015 91 75 C 100.247 73.874 108.715 73.551 116.375 74 C 126.898 75.583 142.783 78.927 164 84 C 166.772 88.531 168.448 96.207 171 107 L 170 116 L 30 116 C 24.858 109.248 25.201 103.591 31 99 C 35.5 95.875 44.322 90.336 60 89 Z " fill="none"/><circle vector-effect="non-scaling-stroke" cx="51.50000000000001" cy="113.99999999999994" r="10.499999999999993" fill="rgb(254,195,58)" stroke-width="6" stroke="rgb(0,0,0)" stroke-linejoin="miter" stroke-linecap="square" stroke-miterlimit="3"/><circle vector-effect="non-scaling-stroke" cx="145.5" cy="114.99999999999996" r="10.5" fill="rgb(254,195,58)" stroke-width="6" stroke="rgb(0,0,0)" stroke-linejoin="miter" stroke-linecap="square" stroke-miterlimit="3"/><line x1="71" y1="111" x2="126" y2="111" vector-effect="non-scaling-stroke" stroke-width="6" stroke="rgb(0,0,0)" stroke-linejoin="miter" stroke-linecap="square" stroke-miterlimit="3"/><mask id="_mask_11orpxuNDjrTnrz5wWs6WnRWb0JDNu0S" x="-200%" y="-200%" width="400%" height="400%"><rect x="-200%" y="-200%" width="400%" height="400%" style="fill:white;"/><path d=" M 98 82 L 97 91 L 73 92 L 98 82 Z " fill="black" stroke="none"/></mask><path d=" M 98 82 L 97 91 L 73 92 L 98 82 Z " fill="none" mask="url(#_mask_11orpxuNDjrTnrz5wWs6WnRWb0JDNu0S)" vector-effect="non-scaling-stroke" stroke-width="12" stroke="rgb(0,0,0)" stroke-linejoin="round" stroke-linecap="square" stroke-miterlimit="3"/><path d=" M 98 82 L 97 91 L 73 92 L 98 82 Z " fill="none"/><mask id="_mask_Xr9aSVnN4g7lzvG3MzXLrgtemRAM0R0g" x="-200%" y="-200%" width="400%" height="400%"><rect x="-200%" y="-200%" width="400%" height="400%" style="fill:white;"/><path d=" M 139 87 L 112 82 L 111 91 L 145 91 L 139 87 Z " fill="black" stroke="none"/></mask><path d=" M 139 87 L 112 82 L 111 91 L 145 91 L 139 87 Z " fill="none" mask="url(#_mask_Xr9aSVnN4g7lzvG3MzXLrgtemRAM0R0g)" vector-effect="non-scaling-stroke" stroke-width="12" stroke="rgb(0,0,0)" stroke-linejoin="round" stroke-linecap="square" stroke-miterlimit="3"/><path d=" M 139 87 L 112 82 L 111 91 L 145 91 L 139 87 Z " fill="none"/></g></svg>