<?xml version="1.0" encoding="UTF-8" standalone="no"?><!-- Generator: Gravit.io --><svg xmlns="http://www.w3.org/2000/svg" xmlns:xlink="http://www.w3.org/1999/xlink" style="isolation:isolate" viewBox="0 0 200 200" width="200pt" height="200pt"><defs><clipPath id="_clipPath_SpJcwGIPhDUyNgla4Syl1wfxANJaXCXc"><rect width="200" height="200"/></clipPath></defs><g clip-path="url(#_clipPath_SpJcwGIPhDUyNgla4Syl1wfxANJaXCXc)"><rect width="200" height="200" style="fill:rgb(51,73,149)"/><path d=" M 87.33 48.021 C 85.994 42.105 88.702 36.445 93.373 35.39 C 98.043 34.336 102.92 38.283 104.256 44.199 C 105.592 50.116 102.885 55.775 98.214 56.83 C 93.543 57.885 88.666 53.937 87.33 48.021 Z " fill="transparent" r="NaN" vector-effect="non-scaling-stroke" stroke-width="6" stroke="rgb(255,255,255)" stroke-linejoin="miter" stroke-linecap="square" stroke-miterlimit="3"/><path d=" M 87.33 48.021 C 85.994 42.105 88.702 36.445 93.373 35.39 C 98.043 34.336 102.92 38.283 104.256 44.199 C 105.592 50.116 102.885 55.775 98.214 56.83 C 93.543 57.885 88.666 53.937 87.33 48.021 Z " fill="none"/><mask id="_mask_Gqv5u7yJyDQSy3mjAyaMQ9lAtOhmkzJp" x="-200%" y="-200%" width="400%" height="400%"><rect x="-200%" y="-200%" width="400%" height="400%" style="fill:white;"/><path d=" M 93.625 62.563 C 89.33 64.946 86.34 69.727 82.292 82.5 L 61.542 92.75 C 58.792 94.083 60.792 98.583 63.042 97.5 L 87.292 87.833 Q 88.287 85.245 93.354 79.24 L 99.542 93.25 C 100.568 97.239 100.162 100.832 98.292 104 L 81.292 129.333 L 72.792 164.083 C 72.042 167.25 77.042 168 78.042 165.083 L 86.542 132.583 L 110.278 104.368 L 133.042 163.833 C 134.875 168.75 139.375 167.5 137.542 161.583 L 128.542 128.917 L 114.06 69.453 Q 128.58 72.843 132.042 75 L 134.292 99.75 C 134.875 104.5 139.875 104.5 139.792 100 L 138.792 72 C 125.329 62.02 116.771 60.563 106.375 58.813 C 104.209 61.688 98.021 63.438 93.625 62.563 Z " fill="black" stroke="none"/></mask><path d=" M 93.625 62.563 C 89.33 64.946 86.34 69.727 82.292 82.5 L 61.542 92.75 C 58.792 94.083 60.792 98.583 63.042 97.5 L 87.292 87.833 Q 88.287 85.245 93.354 79.24 L 99.542 93.25 C 100.568 97.239 100.162 100.832 98.292 104 L 81.292 129.333 L 72.792 164.083 C 72.042 167.25 77.042 168 78.042 165.083 L 86.542 132.583 L 110.278 104.368 L 133.042 163.833 C 134.875 168.75 139.375 167.5 137.542 161.583 L 128.542 128.917 L 114.06 69.453 Q 128.58 72.843 132.042 75 L 134.292 99.75 C 134.875 104.5 139.875 104.5 139.792 100 L 138.792 72 C 125.329 62.02 116.771 60.563 106.375 58.813 C 104.209 61.688 98.021 63.438 93.625 62.563 Z " fill="none" mask="url(#_mask_Gqv5u7yJyDQSy3mjAyaMQ9lAtOhmkzJp)" vector-effect="non-scaling-stroke" stroke-width="12" stroke="rgb(255,255,255)" stroke-linejoin="miter" stroke-linecap="square" stroke-miterlimit="3"/><path d=" M 93.625 62.563 C 89.33 64.946 86.34 69.727 82.292 82.5 L 61.542 92.75 C 58.792 94.083 60.792 98.583 63.042 97.5 L 87.292 87.833 Q 88.287 85.245 93.354 79.24 L 99.542 93.25 C 100.568 97.239 100.162 100.832 98.292 104 L 81.292 129.333 L 72.792 164.083 C 72.042 167.25 77.042 168 78.042 165.083 L 86.542 132.583 L 110.278 104.368 L 133.042 163.833 C 134.875 168.75 139.375 167.5 137.542 161.583 L 128.542 128.917 L 114.06 69.453 Q 128.58 72.843 132.042 75 L 134.292 99.75 C 134.875 104.5 139.875 104.5 139.792 100 L 138.792 72 C 125.329 62.02 116.771 60.563 106.375 58.813 C 104.209 61.688 98.021 63.438 93.625 62.563 Z " fill="none"/><line x1="97.838" y1="97.217" x2="120.325" y2="91.766" vector-effect="non-scaling-stroke" stroke-width="6" stroke="rgb(255,255,255)" stroke-linejoin="miter" stroke-linecap="butt" stroke-miterlimit="3"/></g></svg>